<?xml version="1.0" encoding="iso-8859-1"?>
<!-- Generator: Adobe Illustrator 19.0.0, SVG Export Plug-In . SVG Version: 6.00 Build 0)  -->
<svg version="1.1" id="Layer_1" xmlns="http://www.w3.org/2000/svg" xmlns:xlink="http://www.w3.org/1999/xlink" x="0px" y="0px"
	 viewBox="0 0 512 512" style="enable-background:new 0 0 512 512;" xml:space="preserve">
<path style="fill:#212A2D;" d="M406.252,418.465c-58.309,0-105.747-47.438-105.747-105.747S347.943,206.97,406.252,206.97
	S512,254.408,512,312.718S464.562,418.465,406.252,418.465z"/>
<path style="fill:#2E373A;" d="M406.252,418.465c-58.309,0-105.747-47.438-105.747-105.747S347.943,206.97,406.252,206.97V418.465z"
	/>
<path style="fill:#A2B3BF;" d="M406.252,241.396c-39.327,0-71.322,31.995-71.322,71.322s31.995,71.322,71.322,71.322
	s71.322-31.995,71.322-71.322S445.58,241.396,406.252,241.396z"/>
<path style="fill:#C9D2D9;" d="M406.252,241.396c-39.327,0-71.322,31.995-71.322,71.322s31.995,71.322,71.322,71.322V241.396z"/>
<path style="fill:#212A2D;" d="M105.748,418.465C47.438,418.465,0,371.027,0,312.718S47.438,206.97,105.748,206.97
	s105.748,47.438,105.748,105.747S164.057,418.465,105.748,418.465z"/>
<path style="fill:#2E373A;" d="M105.748,418.465C47.438,418.465,0,371.027,0,312.718S47.438,206.97,105.748,206.97V418.465z"/>
<path style="fill:#A2B3BF;" d="M105.748,241.396c-39.327,0-71.322,31.995-71.322,71.322s31.995,71.322,71.322,71.322
	s71.322-31.995,71.322-71.322S145.075,241.396,105.748,241.396z"/>
<path style="fill:#C9D2D9;" d="M105.748,241.396c-39.327,0-71.322,31.995-71.322,71.322s31.995,71.322,71.322,71.322V241.396z"/>
<path style="fill:#BA2B11;" d="M419.814,302.94c-23.154-33.544-81.063-132.059-71.097-184.382
	c1.779-9.338-4.349-18.351-13.688-20.13c-9.338-1.775-18.351,4.349-20.13,13.687c-1.994,10.472-2.236,22.209-0.742,35.162
	c-0.71,0.724-1.375,1.509-1.966,2.378l-52.145,76.704h-83.204l-28.14-65.096c-3.772-8.726-13.901-12.742-22.63-8.969
	c-8.726,3.772-12.742,13.903-8.969,22.63l31.857,73.694c2.317,5.359,7.033,8.934,12.348,10.028c2.463,1.36,5.292,2.138,8.305,2.138
	h67.029l-23.603,34.72H105.747c-9.506,0-17.213,7.707-17.213,17.213c0,9.506,7.707,17.213,17.213,17.213h116.403
	c5.7,0,11.03-2.822,14.235-7.536l88.342-129.948c5.725,17.178,13.566,35.799,23.529,55.819
	c20.459,41.115,42.305,72.897,43.225,74.23c3.34,4.839,8.714,7.436,14.181,7.436c3.371,0,6.778-0.988,9.763-3.049
	C423.249,321.484,425.214,310.764,419.814,302.94z"/>
<path style="fill:#E64122;" d="M270.673,210.727l-10.627,15.633h-83.204l-28.14-65.096c-3.772-8.726-13.901-12.742-22.63-8.969
	c-8.726,3.772-12.742,13.903-8.969,22.63l31.857,73.694c2.317,5.359,7.033,8.934,12.348,10.028c2.463,1.36,5.292,2.138,8.305,2.138
	h67.029l-23.603,34.72H105.747c-9.506,0-17.213,7.707-17.213,17.213c0,9.506,7.707,17.213,17.213,17.213h116.403
	c5.7,0,11.03-2.822,14.235-7.536l34.288-50.435V210.727z"/>
<path style="fill:#A2B3BF;" d="M338.496,127.96h-50.61c-9.506,0-17.213-7.707-17.213-17.213s7.707-17.213,17.213-17.213h50.61
	c9.506,0,17.213,7.707,17.213,17.213S348.003,127.96,338.496,127.96z"/>
<path style="fill:#C9D2D9;" d="M313.191,127.96h-25.305c-9.506,0-17.213-7.707-17.213-17.213s7.707-17.213,17.213-17.213h25.305
	V127.96z"/>
<path style="fill:#7A4126;" d="M159.755,183.08c-1.794,0-3.617-0.282-5.414-0.877c-19.622-6.497-40.725-7.889-61.031-4.021
	c-9.337,1.777-18.351-4.349-20.13-13.687s4.349-18.351,13.687-20.13c26.048-4.962,53.123-3.179,78.295,5.158
	c9.024,2.988,13.917,12.727,10.929,21.751C173.698,178.502,166.974,183.08,159.755,183.08z"/>
<path style="fill:#995D3D;" d="M124.922,176.364c-10.542-0.768-21.182-0.169-31.613,1.818c-9.337,1.777-18.351-4.349-20.13-13.687
	c-1.779-9.338,4.349-18.351,13.687-20.13c12.555-2.391,25.348-3.216,38.053-2.495L124.922,176.364z"/>
<g>
</g>
<g>
</g>
<g>
</g>
<g>
</g>
<g>
</g>
<g>
</g>
<g>
</g>
<g>
</g>
<g>
</g>
<g>
</g>
<g>
</g>
<g>
</g>
<g>
</g>
<g>
</g>
<g>
</g>
</svg>
